<?xml version="1.0" encoding="UTF-8"?>
<svg id="Capa_1" data-name="Capa 1" xmlns="http://www.w3.org/2000/svg" viewBox="0 0 83.8 83.8">
  <defs>
    <style>
      .cls-1 {
        stroke-width: 4px;
      }

      .cls-1, .cls-2 {
        fill: none;
        stroke: #f5f5f5;
      }

      .cls-2 {
        stroke-linecap: round;
      }
    </style>
  </defs>
  <path class="cls-2" d="m71.31,2.01c-36.39,29.28-93.06,74.94,10.88,49.15"/>
  <path class="cls-2" d="m77.35,2.42c-26.32,24.17-72.52,65.67,4.83,42.7"/>
  <path class="cls-2" d="m81.78,8.06c-18.4,16.92-44.16,47.3,0,31.83"/>
  <path class="cls-2" d="m82.19,21.35c-7.65,6.04-22.96,22.96,0,11.68"/>
  <path class="cls-2" d="m2.01,59.22c-1.21-5.37,4.27-18.29,18.13-26.99,17.32-10.88,20.14-5.64,40.69-30.22"/>
  <path class="cls-2" d="m2.01,35.45C27.8,24.17,66.15,1.05,13.3,2.01"/>
  <path class="cls-2" d="m7.65,2.42C23.77,5.37,51.57,10.88,1.61,30.22"/>
  <path class="cls-2" d="m1.61,10.88c14.1,1.07,37.06,1.61,0,11.28"/>
  <path class="cls-2" d="m81.78,61.24c-9.4,0-33.28.4-42.3,8.46-9.02,8.06-28.74-4.57-37.87-12.09"/>
  <path class="cls-2" d="m47.94,81.78c3.36-6.71,6.85-19.74,33.84-14.91"/>
  <path class="cls-2" d="m61.64,81.78c.67-6.45,2.82-17.73,20.14-9.67"/>
  <path class="cls-2" d="m2.42,70.5c9.67.27,33.84,4.83,12.09,11.28"/>
  <path class="cls-2" d="m2.01,76.14c6.71-1.21,22.16-1.21,7.25,5.64"/>
  <rect class="cls-1" x="2" y="2" width="79.8" height="79.8" rx="9" ry="9"/>
</svg>