<?xml version="1.0" encoding="UTF-8"?>
<svg id="Capa_1" data-name="Capa 1" xmlns="http://www.w3.org/2000/svg" viewBox="0 0 197 83.8">
  <defs>
    <style>
      .cls-1 {
        stroke-width: 4px;
      }

      .cls-1, .cls-2 {
        fill: none;
        stroke: #f5f5f5;
      }

      .cls-3 {
        fill: #f5f5f5;
        stroke-width: 0px;
      }

      .cls-2 {
        stroke-linecap: round;
      }
    </style>
  </defs>
  <path class="cls-3" d="m92.88,38.22V2.21h16.16c4.15,0,7.34.84,9.57,2.52,2.23,1.65,3.35,3.91,3.35,6.79,0,1.96-.45,3.6-1.34,4.94-.86,1.34-2.02,2.37-3.5,3.09-1.47.72-3.07,1.08-4.78,1.08l.93-1.54c2.06,0,3.88.36,5.45,1.08,1.58.72,2.83,1.78,3.76,3.19.93,1.37,1.39,3.09,1.39,5.15,0,3.09-1.17,5.49-3.5,7.2-2.3,1.68-5.73,2.52-10.29,2.52h-17.19Zm5.15-4.17h11.83c2.85,0,5.03-.48,6.53-1.44,1.51-.96,2.26-2.47,2.26-4.53s-.75-3.62-2.26-4.58c-1.51-.96-3.69-1.44-6.53-1.44h-12.3v-4.17h11.01c2.61,0,4.63-.48,6.07-1.44,1.44-.96,2.16-2.4,2.16-4.32s-.72-3.36-2.16-4.32c-1.44-.96-3.46-1.44-6.07-1.44h-10.55v27.68Z"/>
  <path class="cls-3" d="m131.82,38.22V2.21h5.14v36.02h-5.14Z"/>
  <path class="cls-3" d="m164.01,38.64c-2.74,0-5.3-.46-7.67-1.39-2.33-.93-4.36-2.21-6.07-3.86-1.72-1.68-3.05-3.64-4.01-5.87-.96-2.23-1.44-4.67-1.44-7.31s.48-5.08,1.44-7.31c.96-2.23,2.3-4.17,4.01-5.81,1.71-1.68,3.74-2.98,6.07-3.91,2.33-.93,4.89-1.39,7.67-1.39s5.26.46,7.56,1.39c2.33.89,4.36,2.18,6.07,3.86,1.75,1.65,3.09,3.58,4.01,5.81.96,2.23,1.44,4.68,1.44,7.36s-.48,5.13-1.44,7.36c-.93,2.23-2.26,4.19-4.01,5.87-1.71,1.65-3.74,2.93-6.07,3.86-2.3.89-4.82,1.34-7.56,1.34Zm0-4.58c1.99,0,3.82-.34,5.51-1.03,1.72-.69,3.19-1.65,4.43-2.88,1.27-1.27,2.25-2.74,2.93-4.43.72-1.68,1.08-3.52,1.08-5.51s-.36-3.82-1.08-5.51c-.69-1.68-1.66-3.14-2.93-4.37-1.24-1.27-2.71-2.25-4.43-2.93-1.68-.69-3.52-1.03-5.51-1.03s-3.89.34-5.61,1.03c-1.68.69-3.16,1.66-4.42,2.93-1.27,1.23-2.26,2.69-2.98,4.37-.69,1.68-1.03,3.52-1.03,5.51s.34,3.82,1.03,5.51c.72,1.68,1.71,3.16,2.98,4.43,1.27,1.24,2.74,2.2,4.42,2.88,1.72.69,3.59,1.03,5.61,1.03Z"/>
  <path class="cls-3" d="m106.44,81.59c-2.42,0-4.65-.4-6.7-1.2-2.02-.83-3.79-1.99-5.3-3.46-1.48-1.51-2.64-3.26-3.49-5.27-.85-2-1.27-4.2-1.27-6.61s.42-4.6,1.27-6.61c.85-2,2.02-3.74,3.53-5.22,1.51-1.51,3.28-2.66,5.3-3.46,2.05-.83,4.29-1.25,6.7-1.25s4.7.43,6.75,1.29c2.08.83,3.85,2.08,5.3,3.74l-2.94,2.91c-1.21-1.29-2.57-2.25-4.08-2.86-1.51-.65-3.13-.97-4.85-.97s-3.44.31-4.98.92c-1.51.62-2.82,1.48-3.94,2.59-1.12,1.11-1.99,2.43-2.63,3.97-.6,1.51-.91,3.16-.91,4.94s.3,3.45.91,4.99c.63,1.51,1.51,2.82,2.63,3.93,1.12,1.11,2.43,1.97,3.94,2.59,1.54.62,3.2.92,4.98.92s3.34-.31,4.85-.92c1.51-.65,2.87-1.63,4.08-2.96l2.94,2.91c-1.45,1.66-3.22,2.93-5.3,3.79-2.05.86-4.32,1.29-6.79,1.29Z"/>
  <path class="cls-3" d="m131.98,81.22l-10.6-32.34h4.67l9.74,29.84h-2.36l10.1-29.84h4.17l9.88,29.84h-2.26l9.88-29.84h4.3l-10.6,32.34h-4.76l-9.24-27.67h1.22l-9.29,27.67h-4.85Z"/>
  <path class="cls-3" d="m181.64,81.22v-28.32h-10.87v-4.02h26.23v4.02h-10.87v28.32h-4.49Z"/>
  <path class="cls-2" d="m71.31,2.01c-36.39,29.28-93.06,74.94,10.88,49.15"/>
  <path class="cls-2" d="m77.35,2.42c-26.32,24.17-72.52,65.67,4.83,42.7"/>
  <path class="cls-2" d="m81.78,8.06c-18.4,16.92-44.16,47.3,0,31.83"/>
  <path class="cls-2" d="m82.19,21.35c-7.65,6.04-22.96,22.96,0,11.68"/>
  <path class="cls-2" d="m2.01,59.22c-1.21-5.37,4.27-18.29,18.13-26.99,17.32-10.88,20.14-5.64,40.69-30.22"/>
  <path class="cls-2" d="m2.01,35.45C27.8,24.17,66.15,1.05,13.3,2.01"/>
  <path class="cls-2" d="m7.65,2.42C23.77,5.37,51.57,10.88,1.61,30.22"/>
  <path class="cls-2" d="m1.61,10.88c14.1,1.07,37.06,1.61,0,11.28"/>
  <path class="cls-2" d="m81.78,61.24c-9.4,0-33.28.4-42.3,8.46-9.02,8.06-28.74-4.57-37.87-12.09"/>
  <path class="cls-2" d="m47.94,81.78c3.36-6.71,6.85-19.74,33.84-14.91"/>
  <path class="cls-2" d="m61.64,81.78c.67-6.45,2.82-17.73,20.14-9.67"/>
  <path class="cls-2" d="m2.42,70.5c9.67.27,33.84,4.83,12.09,11.28"/>
  <path class="cls-2" d="m2.01,76.14c6.71-1.21,22.16-1.21,7.25,5.64"/>
  <rect class="cls-1" x="2" y="2" width="79.8" height="79.8" rx="9" ry="9"/>
</svg>